<svg xmlns="http://www.w3.org/2000/svg" xmlns:xlink="http://www.w3.org/1999/xlink" width="512" zoomAndPan="magnify" viewBox="0 0 384 383.999986" height="512" preserveAspectRatio="xMidYMid meet" version="1.0"><defs><clipPath id="id1"><path d="M 0 147 L 193 147 L 193 316.945312 L 0 316.945312 Z M 0 147 " clip-rule="nonzero"/></clipPath></defs><g clip-path="url(#id1)"><path fill="#0652e9" d="M 129.300781 267.519531 L 129.300781 290.871094 L 23.449219 241.742188 L 23.449219 222.792969 L 129.300781 173.660156 L 129.300781 197.019531 L 49.25 232.046875 L 49.25 232.488281 Z M 192.164062 147.710938 L 15.148438 147.710938 C 6.792969 147.710938 0.015625 154.480469 0.015625 162.832031 L 0.015625 301.703125 C 0.015625 310.050781 6.792969 316.820312 15.148438 316.820312 L 143.023438 316.820312 L 192.164062 147.710938 " fill-opacity="1" fill-rule="nonzero"/></g><path fill="#62e1e9" d="M 360.59375 153.71875 L 254.746094 202.1875 L 254.746094 178.832031 L 336.554688 143.804688 L 336.554688 143.363281 L 254.746094 108.328125 L 254.746094 84.976562 L 360.59375 133.449219 Z M 241.308594 59.027344 L 192.164062 228.140625 L 368.894531 228.140625 C 377.25 228.140625 384.027344 221.371094 384.027344 213.015625 L 384.027344 74.144531 C 384.027344 65.796875 377.25 59.027344 368.894531 59.027344 L 241.308594 59.027344 " fill-opacity="1" fill-rule="nonzero"/></svg>