<svg xmlns="http://www.w3.org/2000/svg" xmlns:xlink="http://www.w3.org/1999/xlink" width="512" zoomAndPan="magnify" viewBox="0 0 384 383.999986" height="512" preserveAspectRatio="xMidYMid meet" version="1.0"><defs><g/><clipPath id="id1"><path d="M 141.203125 76 L 253 76 L 253 174.605469 L 141.203125 174.605469 Z M 141.203125 76 " clip-rule="nonzero"/></clipPath><clipPath id="id2"><path d="M 252 25.355469 L 363.953125 25.355469 L 363.953125 124 L 252 124 Z M 252 25.355469 " clip-rule="nonzero"/></clipPath></defs><g clip-path="url(#id1)"><path fill="#0652e9" d="M 216.207031 146.011719 L 216.207031 159.523438 L 154.804688 131.101562 L 154.804688 120.140625 L 216.207031 91.714844 L 216.207031 105.226562 L 169.773438 125.492188 L 169.773438 125.746094 Z M 252.671875 76.703125 L 149.988281 76.703125 C 145.140625 76.703125 141.210938 80.621094 141.210938 85.453125 L 141.210938 165.789062 C 141.210938 170.617188 145.140625 174.535156 149.988281 174.535156 L 224.167969 174.535156 L 252.671875 76.703125 " fill-opacity="1" fill-rule="nonzero"/></g><g clip-path="url(#id2)"><path fill="#62e1e9" d="M 350.375 80.179688 L 288.972656 108.21875 L 288.972656 94.707031 L 336.433594 74.445312 L 336.433594 74.1875 L 288.972656 53.921875 L 288.972656 40.414062 L 350.375 68.453125 Z M 281.179688 25.402344 L 252.671875 123.230469 L 355.191406 123.230469 C 360.039062 123.230469 363.96875 119.316406 363.96875 114.484375 L 363.96875 34.148438 C 363.96875 29.316406 360.039062 25.402344 355.191406 25.402344 L 281.179688 25.402344 " fill-opacity="1" fill-rule="nonzero"/></g><g fill="#ffffff" fill-opacity="1"><g transform="translate(49.105706, 293.88188)"><g><path d="M 154.21875 -17.15625 C 155.1875 -17.96875 155.925781 -18.179688 156.4375 -17.796875 C 156.957031 -17.410156 157.050781 -16.707031 156.71875 -15.6875 C 156.113281 -13.945312 154.828125 -11.554688 152.859375 -8.515625 C 150.898438 -5.484375 148.664062 -2.457031 146.15625 0.5625 C 143.644531 3.582031 141.21875 5.941406 138.875 7.640625 C 137.175781 8.796875 135.328125 9.457031 133.328125 9.625 C 129.703125 9.875 127.460938 8.234375 126.609375 4.703125 C 126.191406 2.609375 125.9375 0.484375 125.84375 -1.671875 C 125.84375 -4.066406 126.117188 -8.226562 126.671875 -14.15625 C 126.972656 -17.632812 127.25 -21.28125 127.5 -25.09375 C 127.757812 -28.90625 127.921875 -32.535156 127.984375 -35.984375 C 128.046875 -39.441406 127.882812 -42.316406 127.5 -44.609375 C 127.113281 -46.910156 126.429688 -48.320312 125.453125 -48.84375 C 124.734375 -49.144531 124.09375 -49.101562 123.53125 -48.71875 C 122.976562 -48.332031 122.46875 -47.859375 122 -47.296875 C 121.75 -47.046875 121.519531 -46.816406 121.3125 -46.609375 C 117.632812 -42.910156 114.265625 -38.925781 111.203125 -34.65625 C 106.085938 -27.539062 101.226562 -20.253906 96.625 -12.796875 C 95.394531 -10.835938 94.0625 -8.941406 92.625 -7.109375 C 91.289062 -5.410156 89.554688 -4.664062 87.421875 -4.875 C 85.421875 -5.082031 84.34375 -6.1875 84.1875 -8.1875 C 84.132812 -9.5625 84.210938 -10.9375 84.421875 -12.3125 C 85.703125 -20.90625 86.632812 -30.070312 87.21875 -39.8125 C 87.800781 -49.550781 87.660156 -58.765625 86.796875 -67.453125 C 86.378906 -72.003906 85.5625 -74.546875 84.34375 -75.078125 C 83.125 -75.617188 80.976562 -74.410156 77.90625 -71.453125 C 75.75 -69.460938 73.773438 -67.316406 71.984375 -65.015625 C 70.191406 -62.710938 68.503906 -60.304688 66.921875 -57.796875 C 63.898438 -52.941406 61.175781 -47.957031 58.75 -42.84375 C 56.320312 -37.726562 54.0625 -32.507812 51.96875 -27.1875 C 49.113281 -19.820312 46.484375 -12.367188 44.078125 -4.828125 C 41.671875 2.710938 39.375 10.257812 37.1875 17.8125 C 37.125 18.019531 37.066406 18.207031 37.015625 18.375 C 36.203125 20.976562 35.4375 23.578125 34.71875 26.171875 C 33.90625 28.890625 33.113281 31.597656 32.34375 34.296875 C 32.039062 35.109375 31.738281 35.957031 31.4375 36.84375 C 31.1875 37.5625 30.957031 38.304688 30.75 39.078125 C 30.1875 40.753906 29.035156 41.613281 27.296875 41.65625 C 25.859375 41.769531 24.847656 41.53125 24.265625 40.9375 C 23.679688 40.34375 23.484375 39.304688 23.671875 37.828125 C 24.085938 34.660156 24.550781 31.5 25.0625 28.34375 C 25.363281 26.34375 25.664062 24.34375 25.96875 22.34375 C 28.082031 8.332031 29.742188 -5.703125 30.953125 -19.765625 C 31.535156 -26.503906 31.976562 -33.546875 32.28125 -40.890625 C 32.582031 -48.234375 32.5 -55.53125 32.03125 -62.78125 C 31.570312 -70.03125 30.484375 -76.957031 28.765625 -83.5625 C 28.128906 -85.976562 27.253906 -88.273438 26.140625 -90.453125 C 24.304688 -93.941406 21.414062 -95.554688 17.46875 -95.296875 C 15.414062 -95.046875 13.472656 -94.582031 11.640625 -93.90625 C 7.546875 -92.539062 3.203125 -90.359375 -1.390625 -87.359375 C -5.992188 -84.359375 -10.425781 -80.789062 -14.6875 -76.65625 C -18.957031 -72.519531 -22.585938 -68.0625 -25.578125 -63.28125 C -28.578125 -58.507812 -30.523438 -53.628906 -31.421875 -48.640625 C -32.316406 -43.660156 -31.6875 -38.8125 -29.53125 -34.09375 C -27.289062 -29.601562 -24.128906 -25.921875 -20.046875 -23.046875 C -12.679688 -17.835938 -4.523438 -14.894531 4.421875 -14.21875 C 4.679688 -14.21875 4.914062 -14.21875 5.125 -14.21875 C 5.59375 -14.21875 6.015625 -14.179688 6.390625 -14.109375 C 6.773438 -14.046875 7.144531 -13.882812 7.5 -13.625 C 7.65625 -13.46875 7.785156 -13.289062 7.890625 -13.09375 C 7.992188 -12.894531 8.046875 -12.691406 8.046875 -12.484375 C 8.097656 -12.367188 8.054688 -12.234375 7.921875 -12.078125 C 7.796875 -11.929688 7.675781 -11.8125 7.5625 -11.71875 C 7.21875 -11.457031 6.851562 -11.285156 6.46875 -11.203125 C 6.082031 -11.117188 5.679688 -11.078125 5.265625 -11.078125 C 5.171875 -11.078125 5.078125 -11.078125 4.984375 -11.078125 C 1.546875 -10.941406 -1.8125 -11.28125 -5.09375 -12.09375 C -12.4375 -13.625 -19.128906 -16.609375 -25.171875 -21.046875 C -25.210938 -21.046875 -25.257812 -21.070312 -25.3125 -21.125 C -25.632812 -21.382812 -25.945312 -21.617188 -26.25 -21.828125 C -31.96875 -26.421875 -35.515625 -31.503906 -36.890625 -37.078125 C -38.273438 -42.660156 -38.019531 -48.363281 -36.125 -54.1875 C -34.238281 -60.007812 -31.210938 -65.601562 -27.046875 -70.96875 C -22.890625 -76.34375 -18.109375 -81.164062 -12.703125 -85.4375 C -7.296875 -89.71875 -1.757812 -93.070312 3.90625 -95.5 C 9.570312 -97.925781 14.832031 -99.082031 19.6875 -98.96875 C 23.101562 -98.914062 25.9375 -98.125 28.1875 -96.59375 C 30.445312 -95.0625 32.21875 -92.691406 33.5 -89.484375 C 35.539062 -84.296875 36.984375 -78.523438 37.828125 -72.171875 C 38.679688 -65.816406 39.109375 -59.1875 39.109375 -52.28125 C 39.109375 -45.382812 38.863281 -38.519531 38.375 -31.6875 C 37.882812 -24.851562 37.363281 -18.425781 36.8125 -12.40625 C 36.601562 -10.101562 36.414062 -7.875 36.25 -5.71875 C 36.207031 -5.25 36.1875 -4.710938 36.1875 -4.109375 C 36.226562 -3.804688 36.25 -3.445312 36.25 -3.03125 C 36.71875 -3.59375 37.078125 -4.15625 37.328125 -4.71875 C 37.585938 -5.289062 37.800781 -5.851562 37.96875 -6.40625 C 38.007812 -6.625 38.050781 -6.835938 38.09375 -7.046875 C 40.09375 -13.054688 42.210938 -19.050781 44.453125 -25.03125 C 46.703125 -31.019531 49.1875 -36.910156 51.90625 -42.703125 C 53.738281 -46.671875 55.726562 -50.5625 57.875 -54.375 C 60.03125 -58.1875 62.429688 -61.859375 65.078125 -65.390625 C 68.265625 -69.785156 72.007812 -73.617188 76.3125 -76.890625 C 78.65625 -78.773438 81.335938 -79.773438 84.359375 -79.890625 C 87.679688 -79.941406 90.003906 -78.503906 91.328125 -75.578125 C 92.347656 -73.273438 93.007812 -70.90625 93.3125 -68.46875 C 94.25 -60.675781 94.484375 -52.304688 94.015625 -43.359375 C 93.546875 -34.410156 92.828125 -26.082031 91.859375 -18.375 C 91.804688 -18.28125 91.804688 -18.175781 91.859375 -18.0625 C 91.898438 -18.007812 91.921875 -17.960938 91.921875 -17.921875 C 92.390625 -17.828125 92.738281 -17.890625 92.96875 -18.109375 C 93.195312 -18.328125 93.394531 -18.625 93.5625 -19 C 93.65625 -19.132812 93.722656 -19.257812 93.765625 -19.375 C 98.023438 -26.238281 102.582031 -32.828125 107.4375 -39.140625 C 109.625 -41.859375 111.898438 -44.519531 114.265625 -47.125 C 114.453125 -47.382812 114.671875 -47.640625 114.921875 -47.890625 C 116.460938 -49.640625 118.253906 -51.070312 120.296875 -52.1875 C 122.035156 -53.207031 123.929688 -53.71875 125.984375 -53.71875 C 128.703125 -53.625 130.742188 -52.453125 132.109375 -50.203125 C 133.429688 -47.898438 134.257812 -44.816406 134.59375 -40.953125 C 134.9375 -37.097656 134.976562 -32.878906 134.71875 -28.296875 C 134.46875 -23.722656 134.132812 -19.191406 133.71875 -14.703125 C 133.113281 -8.617188 132.8125 -3.554688 132.8125 0.484375 C 132.851562 2.316406 133.140625 3.4375 133.671875 3.84375 C 134.210938 4.257812 134.914062 4.207031 135.78125 3.6875 C 136.65625 3.175781 137.582031 2.445312 138.5625 1.5 C 140.09375 0.0078125 141.570312 -1.613281 143 -3.375 C 144.4375 -5.144531 145.816406 -6.925781 147.140625 -8.71875 C 148.367188 -10.414062 149.566406 -11.988281 150.734375 -13.4375 C 151.910156 -14.882812 153.070312 -16.125 154.21875 -17.15625 Z M 154.21875 -17.15625 "/></g></g></g><g fill="#ffffff" fill-opacity="1"><g transform="translate(205.599898, 293.88188)"><g><path d="M 31.9375 -17.53125 C 32.1875 -17.488281 32.359375 -17.414062 32.453125 -17.3125 C 32.546875 -17.207031 32.648438 -17.003906 32.765625 -16.703125 C 32.859375 -16.398438 32.753906 -16.035156 32.453125 -15.609375 C 32.148438 -15.191406 31.867188 -14.859375 31.609375 -14.609375 C 29.710938 -12.816406 27.484375 -11.75 24.921875 -11.40625 C 23.460938 -11.1875 22 -11.128906 20.53125 -11.234375 C 19.0625 -11.347656 17.617188 -11.707031 16.203125 -12.3125 C 15.179688 -12.820312 14.226562 -12.671875 13.34375 -11.859375 C 11.507812 -10.179688 9.59375 -8.578125 7.59375 -7.046875 C 6.570312 -6.273438 5.5 -5.632812 4.375 -5.125 C 3.25 -4.613281 2.023438 -4.320312 0.703125 -4.25 C -3.179688 -4.320312 -4.71875 -6.21875 -3.90625 -9.9375 C -3.851562 -10.09375 -3.796875 -10.21875 -3.734375 -10.3125 C -2.617188 -13.332031 -1.144531 -16.054688 0.6875 -18.484375 C 2.53125 -20.921875 4.859375 -22.953125 7.671875 -24.578125 C 9.523438 -25.671875 11.523438 -26.085938 13.671875 -25.828125 C 14.222656 -25.710938 14.753906 -25.503906 15.265625 -25.203125 C 15.890625 -24.898438 16.144531 -24.410156 16.03125 -23.734375 C 15.988281 -23.523438 15.890625 -23.34375 15.734375 -23.1875 C 15.585938 -23.039062 15.429688 -22.898438 15.265625 -22.765625 C 15.171875 -22.648438 15.046875 -22.566406 14.890625 -22.515625 C 14.742188 -22.472656 14.59375 -22.453125 14.4375 -22.453125 C 12.894531 -22.398438 11.570312 -21.945312 10.46875 -21.09375 C 9.363281 -20.25 8.359375 -19.296875 7.453125 -18.234375 C 6.429688 -17.085938 5.484375 -15.828125 4.609375 -14.453125 C 3.742188 -13.085938 3.03125 -11.453125 2.46875 -9.546875 C 4.519531 -10.734375 6.125 -11.910156 7.28125 -13.078125 C 7.539062 -13.328125 7.796875 -13.554688 8.046875 -13.765625 C 8.253906 -13.972656 8.46875 -14.160156 8.6875 -14.328125 C 9.707031 -15.273438 10.773438 -16.113281 11.890625 -16.84375 C 13.160156 -17.5625 14.421875 -17.921875 15.671875 -17.921875 C 16.929688 -17.921875 18.15625 -17.410156 19.34375 -16.390625 C 20.96875 -14.941406 22.546875 -14.375 24.078125 -14.6875 C 25.617188 -15 27.050781 -15.539062 28.375 -16.3125 C 29.71875 -17.125 30.90625 -17.53125 31.9375 -17.53125 Z M 31.9375 -17.53125 "/></g></g></g><g fill="#ffffff" fill-opacity="1"><g transform="translate(238.26146, 293.88188)"><g><path d="M 30.984375 -16.453125 C 31.847656 -17.335938 32.609375 -17.6875 33.265625 -17.5 C 33.929688 -17.3125 34.34375 -16.820312 34.5 -16.03125 C 34.664062 -15.238281 34.4375 -14.359375 33.8125 -13.390625 C 32.53125 -11.503906 30.726562 -9.472656 28.40625 -7.296875 C 26.082031 -5.128906 23.578125 -3.238281 20.890625 -1.625 C 18.210938 -0.0078125 15.675781 0.867188 13.28125 1.015625 C 8.425781 1.265625 6.148438 -1.054688 6.453125 -5.953125 C 6.492188 -6.609375 6.617188 -7.484375 6.828125 -8.578125 C 7.035156 -9.640625 7.203125 -10.671875 7.328125 -11.671875 C 7.460938 -12.671875 7.398438 -13.347656 7.140625 -13.703125 C 6.816406 -14.003906 6.453125 -14.15625 6.046875 -14.15625 C 5.640625 -14.15625 5.203125 -14.109375 4.734375 -14.015625 C 4.222656 -13.898438 3.75 -13.875 3.3125 -13.9375 C 0.9375 -14.195312 -0.296875 -15.421875 -0.390625 -17.609375 C -0.429688 -20.628906 0.128906 -23.519531 1.296875 -26.28125 C 1.660156 -27.144531 2.351562 -27.710938 3.375 -27.984375 C 4.40625 -28.265625 5.347656 -28.148438 6.203125 -27.640625 C 6.765625 -27.296875 7.019531 -26.820312 6.96875 -26.21875 C 6.875 -25.375 6.722656 -24.546875 6.515625 -23.734375 C 6.421875 -23.390625 6.34375 -23.03125 6.28125 -22.65625 C 5.832031 -20.519531 5.832031 -19.410156 6.28125 -19.328125 C 6.738281 -19.242188 7.734375 -19.816406 9.265625 -21.046875 C 10.410156 -21.867188 11.664062 -22.207031 13.03125 -22.0625 C 14.875 -21.90625 15.617188 -20.882812 15.265625 -19 C 14.960938 -17.71875 14.648438 -16.414062 14.328125 -15.09375 C 13.628906 -12.375 13.09375 -9.628906 12.71875 -6.859375 C 12.582031 -4.984375 12.921875 -3.890625 13.734375 -3.578125 C 14.546875 -3.265625 15.628906 -3.453125 16.984375 -4.140625 C 18.347656 -4.835938 19.78125 -5.773438 21.28125 -6.953125 C 22.78125 -8.128906 24.101562 -9.28125 25.25 -10.40625 C 26.40625 -11.53125 27.191406 -12.347656 27.609375 -12.859375 C 27.816406 -13.117188 28.132812 -13.472656 28.5625 -13.921875 C 29 -14.378906 29.445312 -14.835938 29.90625 -15.296875 C 30.414062 -15.804688 30.773438 -16.191406 30.984375 -16.453125 Z M 30.984375 -16.453125 "/></g></g></g><g fill="#ffffff" fill-opacity="1"><g transform="translate(271.480669, 293.88188)"><g><path d="M 29.59375 -16.765625 C 30.613281 -17.742188 31.46875 -17.9375 32.15625 -17.34375 C 32.84375 -16.75 32.835938 -15.640625 32.140625 -14.015625 C 30.535156 -10.898438 28.484375 -7.984375 25.984375 -5.265625 C 23.484375 -2.546875 20.644531 -0.546875 17.46875 0.734375 C 16.09375 1.171875 14.703125 1.390625 13.296875 1.390625 C 11.890625 1.390625 10.503906 1.21875 9.140625 0.875 C 7.785156 0.570312 6.660156 0 5.765625 -0.84375 C 4.867188 -1.695312 4.097656 -2.679688 3.453125 -3.796875 C 1.492188 -7.492188 0.25 -12.804688 -0.28125 -19.734375 C -0.8125 -26.660156 -0.863281 -34.222656 -0.4375 -42.421875 C -0.0078125 -50.628906 0.664062 -58.488281 1.59375 -66 C 2.53125 -73.519531 3.472656 -79.734375 4.421875 -84.640625 C 4.890625 -86.679688 5.585938 -88.617188 6.515625 -90.453125 C 7.535156 -92.359375 9.117188 -93.234375 11.265625 -93.078125 C 13.253906 -93.078125 14.632812 -92.132812 15.40625 -90.25 C 16.21875 -87.832031 16.679688 -85.367188 16.796875 -82.859375 C 17.191406 -76.929688 17.03125 -71.03125 16.3125 -65.15625 C 15.613281 -59.476562 14.722656 -54.171875 13.640625 -49.234375 C 12.566406 -44.296875 11.445312 -39.457031 10.28125 -34.71875 C 8.789062 -28.9375 7.382812 -22.867188 6.0625 -16.515625 C 6.113281 -15.867188 6.1875 -15.289062 6.28125 -14.78125 C 6.4375 -12.988281 6.675781 -11.441406 7 -10.140625 C 7.332031 -8.835938 8.046875 -7.234375 9.140625 -5.328125 C 10.160156 -3.546875 11.445312 -2.597656 13 -2.484375 C 14.5625 -2.378906 16.160156 -2.816406 17.796875 -3.796875 C 19.429688 -4.773438 20.929688 -5.941406 22.296875 -7.296875 C 23.671875 -8.660156 24.742188 -9.898438 25.515625 -11.015625 C 25.722656 -11.316406 26.109375 -11.878906 26.671875 -12.703125 C 27.242188 -13.523438 27.8125 -14.332031 28.375 -15.125 C 28.9375 -15.914062 29.34375 -16.460938 29.59375 -16.765625 Z M 5.375 -35.234375 C 6.019531 -36.929688 6.675781 -39.65625 7.34375 -43.40625 C 8.019531 -47.164062 8.625 -51.34375 9.15625 -55.9375 C 9.695312 -60.539062 10.109375 -64.925781 10.390625 -69.09375 C 10.671875 -73.269531 10.769531 -76.609375 10.6875 -79.109375 C 10.601562 -81.609375 10.28125 -82.660156 9.71875 -82.265625 C 8.90625 -78.734375 8.375 -75.457031 8.125 -72.4375 C 7.957031 -70.851562 7.722656 -68.503906 7.421875 -65.390625 C 6.816406 -59.972656 6.257812 -54.207031 5.75 -48.09375 C 5.238281 -41.988281 5.113281 -37.703125 5.375 -35.234375 Z M 5.375 -35.234375 "/></g></g></g><g fill="#ffffff" fill-opacity="1"><g transform="translate(303.724005, 293.88188)"><g><path d="M 37.265625 -17.671875 C 37.734375 -17.578125 38.050781 -17.296875 38.21875 -16.828125 C 38.394531 -16.367188 38.332031 -15.960938 38.03125 -15.609375 C 35.9375 -13.410156 33.660156 -11.285156 31.203125 -9.234375 C 28.898438 -7.265625 26.617188 -5.175781 24.359375 -2.96875 C 23.035156 -1.519531 22.269531 0.164062 22.0625 2.09375 C 22.019531 2.394531 22 2.707031 22 3.03125 C 21.4375 8.03125 20.679688 13.457031 19.734375 19.3125 C 18.796875 25.164062 17.40625 30.816406 15.5625 36.265625 C 13.71875 41.710938 11.210938 46.320312 8.046875 50.09375 C 7.023438 51.28125 5.875 52.179688 4.59375 52.796875 C 3.320312 53.410156 1.859375 53.660156 0.203125 53.546875 C -3.296875 53.191406 -5.585938 51.875 -6.671875 49.59375 C -7.753906 47.320312 -7.9375 44.425781 -7.21875 40.90625 C -6.5 37.382812 -5.234375 33.601562 -3.421875 29.5625 C -1.609375 25.519531 0.421875 21.578125 2.671875 17.734375 C 4.929688 13.898438 7.054688 10.535156 9.046875 7.640625 C 11.035156 4.753906 12.597656 2.671875 13.734375 1.390625 C 15.523438 -0.535156 16.46875 -2.753906 16.5625 -5.265625 C 16.65625 -6.285156 16.734375 -7.304688 16.796875 -8.328125 C 16.984375 -10.160156 17.113281 -12.207031 17.1875 -14.46875 C 16.46875 -13.957031 15.828125 -13.523438 15.265625 -13.171875 C 14.335938 -12.503906 13.488281 -11.9375 12.71875 -11.46875 C 10.46875 -10.144531 8.039062 -9.757812 5.4375 -10.3125 C 3.488281 -10.875 2.09375 -11.984375 1.25 -13.640625 C 0.414062 -15.304688 0.0078125 -17.160156 0.03125 -19.203125 C 0.0507812 -21.253906 0.425781 -23.082031 1.15625 -24.6875 C 1.613281 -25.707031 2.363281 -26.351562 3.40625 -26.625 C 4.457031 -26.90625 5.472656 -26.769531 6.453125 -26.21875 C 6.585938 -26.101562 6.71875 -25.925781 6.84375 -25.6875 C 6.976562 -25.457031 7.019531 -25.25 6.96875 -25.0625 C 6.925781 -24.550781 6.800781 -24.039062 6.59375 -23.53125 C 6.5 -23.207031 6.414062 -22.867188 6.34375 -22.515625 C 5.78125 -20.171875 5.941406 -17.847656 6.828125 -15.546875 C 7.390625 -14.109375 8.3125 -13.875 9.59375 -14.84375 C 11.726562 -16.6875 13.539062 -18.816406 15.03125 -21.234375 C 15.488281 -21.929688 15.894531 -22.640625 16.25 -23.359375 C 16.457031 -23.660156 16.640625 -23.972656 16.796875 -24.296875 C 17.816406 -25.828125 19.222656 -26.488281 21.015625 -26.28125 C 22.992188 -26.164062 23.984375 -25.144531 23.984375 -23.21875 C 23.929688 -20.539062 23.835938 -17.898438 23.703125 -15.296875 C 23.628906 -14.066406 23.570312 -12.847656 23.53125 -11.640625 C 23.4375 -10.617188 23.53125 -10.003906 23.8125 -9.796875 C 24.09375 -9.585938 24.660156 -9.84375 25.515625 -10.5625 C 26.097656 -11.03125 26.664062 -11.484375 27.21875 -11.921875 C 29.21875 -13.523438 31.179688 -15.117188 33.109375 -16.703125 C 34.390625 -17.722656 35.773438 -18.046875 37.265625 -17.671875 Z M 3.140625 47.515625 C 5.140625 45.046875 6.992188 41.445312 8.703125 36.71875 C 10.410156 31.988281 11.816406 27.09375 12.921875 22.03125 C 14.023438 16.96875 14.617188 12.726562 14.703125 9.3125 C 13.890625 9.46875 12.929688 10.398438 11.828125 12.109375 C 10.722656 13.816406 9.5625 15.988281 8.34375 18.625 C 7.125 21.269531 5.921875 24.019531 4.734375 26.875 C 4.523438 27.382812 4.085938 28.6875 3.421875 30.78125 C 2.765625 32.875 2.09375 35.238281 1.40625 37.875 C 0.726562 40.507812 0.222656 42.898438 -0.109375 45.046875 C -0.453125 47.203125 -0.40625 48.609375 0.03125 49.265625 C 0.476562 49.929688 1.515625 49.347656 3.140625 47.515625 Z M 3.140625 47.515625 "/></g></g></g><g fill="#ffffff" fill-opacity="1"><g transform="translate(340.672488, 293.88188)"><g><path d="M 30.75 -17.46875 C 31.625 -17.300781 32.109375 -16.820312 32.203125 -16.03125 C 32.296875 -15.238281 31.890625 -14.4375 30.984375 -13.625 C 30.109375 -12.863281 29.257812 -12.144531 28.4375 -11.46875 C 26.394531 -9.789062 24.203125 -8 21.859375 -6.09375 C 20.023438 -4.613281 18.335938 -2.976562 16.796875 -1.1875 C 15.660156 0.0195312 14.8125 1.390625 14.25 2.921875 C 13.644531 4.921875 12.625 6.710938 11.1875 8.296875 C 10.375 9.222656 9.441406 9.789062 8.390625 10 C 7.347656 10.207031 6.257812 10.148438 5.125 9.828125 C 4.5625 9.691406 4.140625 9.398438 3.859375 8.953125 C 3.585938 8.515625 3.53125 8.015625 3.6875 7.453125 C 3.875 6.597656 4.203125 5.785156 4.671875 5.015625 C 5.347656 4.046875 6.066406 3.09375 6.828125 2.15625 C 6.878906 2.0625 6.953125 1.96875 7.046875 1.875 C 9.710938 -1.445312 9.875 -4.847656 7.53125 -8.328125 C 6.945312 -9.097656 6.304688 -9.84375 5.609375 -10.5625 C 5.398438 -10.820312 5.171875 -11.078125 4.921875 -11.328125 C 4.492188 -11.835938 4.050781 -12.328125 3.59375 -12.796875 C 2.726562 -13.703125 1.890625 -14.664062 1.078125 -15.6875 C -1.222656 -18.914062 -1.070312 -22.003906 1.53125 -24.953125 C 3.789062 -27.628906 6.601562 -29.476562 9.96875 -30.5 C 12.0625 -31.101562 14.082031 -30.914062 16.03125 -29.9375 C 17.914062 -28.914062 18.789062 -27.335938 18.65625 -25.203125 C 18.4375 -23.765625 17.710938 -22.914062 16.484375 -22.65625 C 14.910156 -22.351562 13.785156 -22.84375 13.109375 -24.125 C 12.898438 -24.632812 12.75 -25.078125 12.65625 -25.453125 C 12.5625 -25.847656 12.429688 -26.148438 12.265625 -26.359375 C 12.109375 -26.566406 11.851562 -26.628906 11.5 -26.546875 C 11.15625 -26.460938 10.597656 -26.1875 9.828125 -25.71875 C 8.640625 -25.03125 7.617188 -24.113281 6.765625 -22.96875 C 5.367188 -21.300781 5.285156 -19.515625 6.515625 -17.609375 C 6.929688 -17.003906 7.394531 -16.445312 7.90625 -15.9375 C 8.46875 -15.300781 9.003906 -14.679688 9.515625 -14.078125 C 10.535156 -13.054688 11.503906 -12.007812 12.421875 -10.9375 C 13.335938 -9.875 14.132812 -8.726562 14.8125 -7.5 C 15.320312 -7.59375 16.21875 -8.070312 17.5 -8.9375 C 18.78125 -9.8125 20.164062 -10.820312 21.65625 -11.96875 C 23.15625 -13.125 24.523438 -14.164062 25.765625 -15.09375 C 26.785156 -15.90625 27.503906 -16.460938 27.921875 -16.765625 C 28.265625 -17.023438 28.691406 -17.21875 29.203125 -17.34375 C 29.722656 -17.46875 30.238281 -17.507812 30.75 -17.46875 Z M 30.75 -17.46875 "/></g></g></g><g fill="#ffffff" fill-opacity="1"><g transform="translate(102.311287, 338.745237)"><g><path d="M 1.957031 0 L 6.355469 0 C 10.777344 0 14.398438 -3.59375 14.398438 -8.042969 C 14.398438 -12.496094 10.777344 -16.085938 6.355469 -16.085938 L 1.957031 -16.085938 Z M 3.648438 -1.714844 L 3.648438 -14.371094 L 6.328125 -14.371094 C 9.894531 -14.371094 12.683594 -11.664062 12.683594 -8.042969 C 12.683594 -4.425781 9.894531 -1.714844 6.328125 -1.714844 Z M 3.648438 -1.714844 "/></g></g></g><g fill="#ffffff" fill-opacity="1"><g transform="translate(125.206596, 338.745237)"><g><path d="M 10.886719 -14.425781 L 10.886719 -16.085938 L 2.089844 -16.085938 L 2.089844 0 L 10.886719 0 L 10.886719 -1.664062 L 3.808594 -1.664062 L 3.808594 -7.210938 L 9.972656 -7.210938 L 9.972656 -8.875 L 3.808594 -8.875 L 3.808594 -14.425781 Z M 10.886719 -14.425781 "/></g></g></g><g fill="#ffffff" fill-opacity="1"><g transform="translate(144.885098, 338.745237)"><g><path d="M 11.664062 -16.085938 L 6.785156 -2.199219 L 1.902344 -16.085938 L 0 -16.085938 L 5.816406 0 L 7.722656 0 L 13.539062 -16.085938 Z M 11.664062 -16.085938 "/></g></g></g><g fill="#ffffff" fill-opacity="1"><g transform="translate(165.609062, 338.745237)"><g><path d="M 10.886719 -14.425781 L 10.886719 -16.085938 L 2.089844 -16.085938 L 2.089844 0 L 10.886719 0 L 10.886719 -1.664062 L 3.808594 -1.664062 L 3.808594 -7.210938 L 9.972656 -7.210938 L 9.972656 -8.875 L 3.808594 -8.875 L 3.808594 -14.425781 Z M 10.886719 -14.425781 "/></g></g></g><g fill="#ffffff" fill-opacity="1"><g transform="translate(185.287566, 338.745237)"><g><path d="M 3.671875 -1.714844 L 3.671875 -16.085938 L 1.957031 -16.085938 L 1.957031 0 L 9.652344 0 L 9.652344 -1.714844 Z M 3.671875 -1.714844 "/></g></g></g><g fill="#ffffff" fill-opacity="1"><g transform="translate(202.365818, 338.745237)"><g><path d="M 9.570312 0.214844 C 14.15625 0.214844 17.832031 -3.484375 17.832031 -8.042969 C 17.832031 -12.601562 14.15625 -16.300781 9.570312 -16.300781 C 5.015625 -16.300781 1.3125 -12.601562 1.3125 -8.042969 C 1.3125 -3.484375 5.015625 0.214844 9.570312 0.214844 Z M 9.570312 -1.5 C 5.953125 -1.5 3.03125 -4.398438 3.03125 -8.042969 C 3.03125 -11.691406 5.953125 -14.585938 9.570312 -14.585938 C 13.21875 -14.585938 16.113281 -11.691406 16.113281 -8.042969 C 16.113281 -4.398438 13.21875 -1.5 9.570312 -1.5 Z M 9.570312 -1.5 "/></g></g></g><g fill="#ffffff" fill-opacity="1"><g transform="translate(228.71919, 338.745237)"><g><path d="M 7.722656 -16.085938 L 1.957031 -16.085938 L 1.957031 0 L 3.671875 0 L 3.671875 -7.160156 L 7.722656 -7.160156 C 10.214844 -7.160156 12.199219 -9.117188 12.199219 -11.609375 C 12.199219 -14.078125 10.214844 -16.085938 7.722656 -16.085938 Z M 7.5625 -8.792969 L 3.671875 -8.792969 L 3.671875 -14.425781 L 7.5625 -14.425781 C 9.167969 -14.425781 10.484375 -13.300781 10.484375 -11.582031 C 10.484375 -9.8125 9.167969 -8.792969 7.5625 -8.792969 Z M 7.5625 -8.792969 "/></g></g></g><g fill="#ffffff" fill-opacity="1"><g transform="translate(248.558541, 338.745237)"><g><path d="M 10.886719 -14.425781 L 10.886719 -16.085938 L 2.089844 -16.085938 L 2.089844 0 L 10.886719 0 L 10.886719 -1.664062 L 3.808594 -1.664062 L 3.808594 -7.210938 L 9.972656 -7.210938 L 9.972656 -8.875 L 3.808594 -8.875 L 3.808594 -14.425781 Z M 10.886719 -14.425781 "/></g></g></g><g fill="#ffffff" fill-opacity="1"><g transform="translate(268.237044, 338.745237)"><g><path d="M 8.472656 -7.347656 C 10.589844 -7.640625 12.199219 -9.410156 12.199219 -11.582031 C 12.199219 -14.101562 10.1875 -16.085938 7.722656 -16.085938 L 1.957031 -16.085938 L 1.957031 0 L 3.671875 0 L 3.671875 -7.265625 L 6.703125 -7.265625 L 11.261719 0 L 13.21875 0 Z M 3.671875 -8.902344 L 3.671875 -14.371094 L 7.613281 -14.371094 C 9.222656 -14.371094 10.484375 -13.246094 10.484375 -11.636719 C 10.484375 -10 9.25 -8.902344 7.613281 -8.902344 Z M 3.671875 -8.902344 "/></g></g></g></svg>